# xmcd CD database file
#
# Track frame offsets:
#	150
#	44600
#	76090
#	97377
#	107095
#	125622
#	148007
#	164700
#
# Disc length: 2837 seconds
#
# Revision: 0
# Processed by: cddbd v1.4PL0 Copyright (c) Steve Scherf et al.
# Submitted via: CDex 1.50Beta5
#
DISCID=740b1308
DTITLE=Eddie Daniels - First Prize
DYEAR=1966
DGENRE=Jazz
TTITLE0=Felicidade
TTITLE1=That Waltz
TTITLE2=Falling in Love With Love
TTITLE3=Love's Long Journey
TTITLE4=Time Marches On
TTITLE5=Spanish Flea
TTITLE6=The Rocker
TTITLE7=How Deep is the Ocean?
EXTD=YEAR: 1966
EXTT0=
EXTT1=
EXTT2=
EXTT3=
EXTT4=
EXTT5=
EXTT6=
EXTT7=
PLAYORDER=
